HIERARCHY
ROOT Hips
{
	OFFSET	0.00	0.00	0.00
	CHANNELS 6 Xposition Yposition Zposition Zrotation Xrotation Yrotation
	JOINT LeftHip
	{
		OFFSET	 3.430000	 0.000000	 0.000000
		CHANNELS 3 Zrotation Xrotation Yrotation
		JOINT LeftKnee
		{
			OFFSET	 0.000000	-18.469999	 0.000000
			CHANNELS 3 Zrotation Xrotation Yrotation
			JOINT LeftAnkle
			{
				OFFSET	 0.000000	-17.950001	 0.000000
				CHANNELS 3 Zrotation Xrotation Yrotation
				End Site 
				{
					OFFSET	 0.000000	-3.119996	 0.000000
				}
			}
		}
	}
	JOINT RightHip
	{
		OFFSET	-3.430000	 0.000000	 0.000000
		CHANNELS 3 Zrotation Xrotation Yrotation
		JOINT RightKnee
		{
			OFFSET	 0.000000	-18.809999	 0.000000
			CHANNELS 3 Zrotation Xrotation Yrotation
			JOINT RightAnkle
			{
				OFFSET	 0.000000	-17.570000	 0.000000
				CHANNELS 3 Zrotation Xrotation Yrotation
				End Site 
				{
					OFFSET	 0.000000	-3.250000	 0.000000
				}
			}
		}
	}
	JOINT Chest
	{
		OFFSET	 0.000000	 4.570000	 0.000000
		CHANNELS 3 Zrotation Xrotation Yrotation
		JOINT LeftCollar
		{
			OFFSET	 1.060000	 15.330000	 1.760000
			CHANNELS 3 Zrotation Xrotation Yrotation
			JOINT LeftShoulder
			{
				OFFSET	 5.810000	 0.000000	 0.000000
				CHANNELS 3 Zrotation Xrotation Yrotation
				JOINT LeftElbow
				{
					OFFSET	 0.000000	-12.080000	 0.000000
					CHANNELS 3 Zrotation Xrotation Yrotation
					JOINT LeftWrist
					{
						OFFSET	 0.000000	-9.820000	 0.000000
						CHANNELS 3 Zrotation Xrotation Yrotation
						End Site 
						{
							OFFSET	 0.000000	-7.369996	 0.000000
						}
					}
				}
			}
		}
		JOINT RightCollar
		{
			OFFSET	-1.060000	 15.330000	 1.760000
			CHANNELS 3 Zrotation Xrotation Yrotation
			JOINT RightShoulder
			{
				OFFSET	-6.060000	 0.000000	 0.000000
				CHANNELS 3 Zrotation Xrotation Yrotation
				JOINT RightElbow
				{
					OFFSET	 0.000000	-11.900000	 0.000000
					CHANNELS 3 Zrotation Xrotation Yrotation
					JOINT RightWrist
					{
						OFFSET	 0.000000	-9.520000	 0.000000
						CHANNELS 3 Zrotation Xrotation Yrotation
						End Site 
						{
							OFFSET	 0.000000	-7.140012	 0.000000
						}
					}
				}
			}
		}
		JOINT Neck
		{
			OFFSET	 0.000000	 17.620001	 0.000000
			CHANNELS 3 Zrotation Xrotation Yrotation
			JOINT Head
			{
				OFFSET	 0.000000	 5.190000	 0.000000
				CHANNELS 3 Zrotation Xrotation Yrotation
				End Site 
				{
					OFFSET	 0.000000	 4.140008	 0.000000
				}
			}
		}
	}
}

MOTION
Frames: 28
Frame Time: 0.033333
-36.2511 -2.0516 -39.5872 4.4929 7.93361 89.5576 20.9352 -10.9721 19.0081 0.768061 38.8713 3.03592 -19.9878 -11.8432 -10.6456 -32.9128 -18.002 -13.8592 4.89387 45.6559 7.32217 13.2613 -18.2146 11.9737 -0.852234 13.5163 -2.23349 0 0 0 129.592 -1.88669 116.813 -54.1551 -46.0123 -37.2565 59.8142 -26.4722 25.4248 0 0 0 -145.653 -0.813703 -100.473 38.6679 -49.2746 24.5671 -51.4401 -28.9956 -11.1383 0 0 0 -0.331643 -7.66312 7.15241 
-36.1557 -2.26 -39.4692 4.65487 7.85558 90.5658 21.0503 -11.027 17.7752 0.664499 39.503 3.09292 -20.0468 -12.0611 -10.866 -32.792 -16.9807 -13.8566 4.58818 45.9715 7.50823 13.2086 -18.8413 12.5629 -1.57079 12.7978 -2.00728 0 0 0 128.973 -1.77787 116.057 -54.6037 -45.9503 -37.7808 60.3415 -26.713 24.7569 0 0 0 -146.757 -2.16032 -101.311 37.2893 -48.5288 23.4642 -51.8759 -29.4063 -11.0307 0 0 0 0.206221 -6.64779 6.53704 
-36.1005 -2.4785 -39.4064 5.33914 7.33303 91.7216 21.3723 -11.2347 15.9121 0.532705 40.2953 3.22456 -20.014 -12.4307 -10.6217 -32.4449 -15.6932 -14.6539 4.23691 46.1552 7.6793 13.3811 -19.4036 13.1601 -1.23886 12.4243 -2.17905 0 0 0 128.327 -2.93154 115.553 -54.6889 -45.8895 -38.0772 59.8562 -26.7384 24.3515 0 0 0 -147.781 -4.20483 -101.829 35.4227 -47.3991 21.9962 -52.4811 -29.5968 -10.7402 0 0 0 0.239917 -5.86806 6.57179 
-36.118 -2.6844 -39.3511 6.41625 6.46525 93.0107 21.9285 -11.8377 13.6711 0.450766 41.3419 3.30522 -19.9181 -12.8958 -10.2543 -31.9184 -13.8811 -16.7585 3.59621 46.0758 8.09004 13.5568 -19.7657 14.0632 0.199572 12.613 -2.85249 0 0 0 127.814 -5.19637 115.293 -55.3893 -45.6722 -38.5474 59.4752 -26.9957 23.9631 0 0 0 -148.409 -6.49322 -101.809 33.496 -46.0733 20.5513 -53.1797 -29.905 -10.3506 0 0 0 -0.236337 -5.55022 6.91216 
-36.1607 -2.8979 -39.2457 7.65786 5.43869 95.0623 22.5912 -12.8327 10.9159 0.412554 42.4682 3.3108 -19.8139 -13.3152 -9.92294 -31.1579 -11.7314 -19.323 2.9344 45.785 8.57747 13.7645 -20.0372 14.7532 1.66987 12.8122 -3.54764 0 0 0 127.766 -8.01334 114.806 -56.6491 -45.515 -39.1011 59.4588 -27.4774 23.2553 0 0 0 -148.611 -8.84929 -101.171 31.5862 -44.5846 19.294 -54.0256 -30.0296 -10.114 0 0 0 -0.469125 -5.40372 7.17355 
-36.2084 -3.0184 -39.0749 8.91017 4.42134 98.1373 23.3083 -14.4505 8.09948 0.356658 43.3563 3.29849 -19.6246 -13.2316 -10.1209 -30.263 -9.48398 -21.9292 2.75957 45.4188 8.53184 13.9687 -20.3034 14.8649 2.84473 13.2736 -4.0512 0 0 0 128.516 -10.8133 114.086 -57.4945 -45.2039 -39.5725 59.2016 -28.0403 22.6218 0 0 0 -147.935 -10.3391 -99.8468 30.3211 -43.3873 18.4765 -54.8165 -29.8713 -9.99995 0 0 0 -0.18398 -5.65343 7.36904 
-36.2762 -3.0937 -38.874 9.31786 3.50753 101.899 23.9652 -16.0749 5.83208 0.657888 43.6055 2.90915 -19.5011 -12.5267 -10.6771 -29.1479 -7.42301 -23.9592 2.97678 44.9594 8.14509 14.0172 -20.6102 14.2866 3.71157 13.9086 -4.49 0 0 0 129.666 -13.2973 113.153 -57.7188 -44.7603 -40.0569 59.0942 -28.3173 22.6328 0 0 0 -146.721 -10.4764 -98.4453 29.819 -42.9914 18.1037 -55.2195 -29.4135 -9.85411 0 0 0 0.413461 -6.14259 7.51539 
-36.339 -3.0812 -38.6178 8.85623 2.69939 106.482 24.1753 -18.1208 3.77119 1.05054 43.281 2.45008 -19.3481 -11.3083 -11.6913 -28.1461 -5.53964 -25.9064 3.51186 44.562 7.63229 13.9865 -21.0611 12.9346 2.90238 15.0395 -3.87171 0 0 0 131.598 -13.9041 112.649 -56.8389 -44.411 -39.8644 59.1909 -28.1293 23.0902 0 0 0 -144.5 -9.07754 -98.4501 30.3145 -43.2912 18.6041 -55.8844 -29.121 -10.1477 0 0 0 2.1285 -7.43787 6.93665 
-36.3993 -2.9381 -38.3491 7.89689 2.09408 110.678 24.0193 -20.3172 2.08081 1.45266 42.6774 1.88309 -19.3543 -10.0752 -12.7113 -27.5003 -4.22854 -27.4853 4.19103 44.3142 6.94707 13.9018 -21.4011 11.3337 1.09372 16.2172 -2.70053 0 0 0 133.491 -12.9369 113.288 -54.9336 -44.4559 -38.99 58.722 -27.7779 24.1419 0 0 0 -142.183 -7.73822 -98.8798 31.1765 -43.9259 19.3479 -56.7214 -28.9918 -10.4477 0 0 0 4.15821 -8.92804 5.87381 
-36.4244 -2.7598 -38.113 7.05284 1.73442 114.208 23.7 -22.2896 1.10292 1.75042 41.9768 1.29031 -19.2594 -8.88602 -13.9126 -27.1871 -3.30894 -28.6098 4.87225 44.2447 6.26322 13.8481 -21.6454 9.79359 -1.19328 17.4766 -1.06717 0 0 0 134.956 -11.1338 114.346 -52.9569 -44.486 -38.2618 59.0487 -28.0872 24.8289 0 0 0 -140.002 -6.58827 -99.3288 32.4151 -44.8366 20.2947 -57.6583 -28.8891 -10.7768 0 0 0 6.1785 -10.4674 4.29602 
-36.442 -2.6166 -37.9322 6.40361 1.6018 117.07 23.3538 -23.7833 0.785949 2.10664 41.1576 0.548149 -19.1486 -7.73607 -15.0705 -27.1592 -2.65797 -29.3535 5.44016 44.3445 5.65071 13.8563 -21.8044 8.54998 -3.69611 18.6519 0.7273 0 0 0 135.56 -8.60948 115.161 -51.2089 -44.5649 -37.7577 59.2606 -28.2322 25.5995 0 0 0 -137.926 -5.92212 -99.6812 33.8363 -45.965 21.4692 -58.6067 -28.939 -11.0977 0 0 0 7.96739 -11.8184 2.48225 
-36.4395 -2.481 -37.8192 5.86885 1.72181 119.179 23.0067 -24.8221 0.995034 2.33183 40.3441 -0.0703255 -18.983 -6.7286 -16.1429 -27.4541 -2.25202 -29.6545 6.0647 44.6131 4.96665 13.8553 -21.9614 7.64598 -6.27626 19.8302 2.55149 0 0 0 135.594 -5.74659 115.519 -49.5166 -44.5817 -37.3409 59.1038 -28.2537 26.3676 0 0 0 -136.015 -5.46862 -99.8741 35.3895 -47.1712 22.5578 -59.507 -29.2017 -11.3186 0 0 0 9.43746 -12.9512 0.228718 
-36.447 -2.4735 -37.8569 5.69139 2.14344 119.93 22.5583 -24.9423 1.63459 2.65988 39.8426 -0.743685 -18.9068 -6.3737 -16.6418 -28.0208 -2.1868 -29.1932 6.50887 45.0417 4.49515 13.8914 -22.1012 7.21853 -8.51566 20.9279 4.42761 0 0 0 134.812 -3.39495 115.225 -48.2307 -44.538 -37.0447 59.2018 -28.3109 27.0275 0 0 0 -134.695 -5.74694 -100.322 36.5744 -47.915 23.3939 -60.5957 -29.6062 -11.7678 0 0 0 10.1448 -13.7493 -2.47064 
-36.4671 -2.5614 -38.0176 5.89528 2.73721 119.83 22.1426 -24.4241 2.57717 2.95177 40.1719 -1.73755 -18.7891 -7.07973 -16.4493 -28.8212 -2.13434 -28.4251 6.69645 45.5094 4.6552 13.9777 -22.2254 6.97794 -10.1938 22.0272 5.89874 0 0 0 133.311 -1.83067 113.548 -47.527 -44.6257 -36.6863 59.3624 -28.5565 27.1227 0 0 0 -134.404 -6.93088 -101.44 37.0057 -48.0155 23.7516 -61.8932 -29.4928 -12.6944 0 0 0 10.0746 -14.3028 -4.98447 
-36.4947 -2.7598 -38.3014 6.60865 3.28314 118.704 21.9423 -23.1995 3.39718 3.14199 41.0097 -2.44281 -18.6627 -8.34499 -15.5589 -29.6732 -1.98459 -27.8491 6.35254 45.919 5.28407 14.3149 -22.1898 7.8692 -9.93957 22.6252 6.08149 0 0 0 131.296 -2.42214 111.767 -47.871 -44.5741 -36.9428 59.3979 -29.0142 26.9119 0 0 0 -135.773 -10.3343 -101.795 36.1052 -47.3361 22.9357 -63.0739 -28.8549 -13.3877 0 0 0 9.08401 -13.9676 -6.45534 
-36.4545 -2.9958 -38.668 7.3657 3.63349 116.999 21.8559 -21.7809 4.31949 3.3086 42.14 -3.00544 -18.3506 -9.95981 -14.491 -30.4648 -1.81112 -27.3351 5.81546 46.1145 5.90183 14.887 -22.248 9.32448 -8.78406 22.6969 5.68764 0 0 0 129.74 -4.11054 109.599 -48.3882 -44.3348 -37.4065 59.6329 -29.1495 26.6129 0 0 0 -137.694 -14.1936 -101.156 34.7607 -46.1937 21.854 -64.0096 -27.9035 -14.0496 0 0 0 7.92916 -13.2097 -7.12137 
-36.3842 -3.2745 -39.0749 7.93825 3.65517 115.106 21.8716 -20.3909 5.01349 3.46068 43.6251 -3.34018 -17.9727 -11.8121 -13.147 -31.1782 -1.43672 -27.0013 5.23344 45.9854 6.6933 15.6762 -22.2567 11.0048 -7.01034 22.1658 4.75947 0 0 0 129.165 -5.99672 108.029 -50.1407 -44.5356 -38.3598 60.0034 -28.6735 25.8164 0 0 0 -139.919 -17.6346 -100.065 33.3625 -44.7903 20.8624 -64.8738 -27.0378 -14.5486 0 0 0 6.72893 -12.1596 -6.97268 
-36.2486 -3.5282 -39.5068 8.13634 3.30624 113.413 22.0478 -19.2955 5.49854 3.4916 45.2606 -3.36588 -17.4793 -13.6338 -11.7453 -31.6345 -1.10206 -26.933 4.72778 45.7001 7.38823 16.5181 -22.2536 12.6298 -4.92537 21.2772 3.63873 0 0 0 129.615 -7.61093 107.135 -51.3572 -44.6221 -38.7799 60.5021 -28.2317 25.616 0 0 0 -142.321 -19.8754 -99.3803 32.4135 -43.5695 20.093 -65.9629 -26.2493 -14.9837 0 0 0 5.57401 -11.3321 -6.4722 
-36.0201 -3.7492 -39.9588 7.94476 2.44204 112.244 22.5004 -18.733 5.83035 3.5946 46.7905 -3.42757 -16.9046 -15.3884 -10.3987 -31.6903 -0.832236 -27.4377 4.06154 45.0678 8.09388 17.6144 -22.0437 14.2194 -2.49318 19.8071 2.29217 0 0 0 131.1 -9.0626 107.149 -53.2826 -45.3178 -39.8391 60.9623 -27.0734 25.1163 0 0 0 -144.908 -20.986 -99.7225 32.0861 -42.8719 19.7972 -67.5288 -25.9364 -15.4727 0 0 0 4.40515 -10.7518 -5.39448 
-35.7188 -3.8571 -40.3807 7.39363 1.07055 111.917 23.1796 -19.0936 5.77934 3.64766 48.2262 -3.38526 -16.3851 -16.9195 -9.04917 -31.3196 -0.688393 -28.7933 3.42649 43.9132 8.71317 18.8288 -21.4664 15.6166 0.0173755 17.5575 0.840036 0 0 0 133.725 -10.5766 108.546 -55.6062 -45.8146 -41.0461 62.2603 -25.938 25.5305 0 0 0 -147.673 -20.4417 -101.863 32.4008 -43.0448 20.0449 -68.4798 -25.5322 -15.349 0 0 0 3.39897 -10.2592 -4.02069 
-35.3095 -3.7065 -40.7423 6.34723 -0.724032 112.952 23.8993 -20.9138 5.01764 3.396 48.9734 -2.67663 -15.9684 -17.4896 -8.18731 -30.4149 -0.830966 -31.0286 3.09705 42.2366 8.65923 20.0106 -20.616 16.6096 1.88505 14.6051 -0.149325 0 0 0 138.592 -11.9149 112.738 -58.4056 -46.32 -42.4246 63.5767 -24.4361 25.8921 0 0 0 -149.655 -17.2634 -105.74 33.6425 -44.249 20.957 -69.4919 -25.8204 -14.7992 0 0 0 3.1925 -10.2538 -3.10646 
-34.875 -3.4428 -41.0437 4.98438 -2.70558 114.609 24.5549 -23.4108 3.84722 2.96934 49.246 -1.9602 -15.4827 -17.5531 -7.31115 -28.9654 -1.04724 -32.5687 3.22391 39.7176 7.95689 20.9537 -19.5642 16.2335 2.92248 11.7667 -0.496636 0 0 0 144.517 -12.1677 118.966 -61.3614 -47.8121 -44.6126 64.8371 -22.2901 25.8672 0 0 0 -150.704 -12.1673 -110.331 35.5701 -46.4702 22.437 -70.7428 -26.5537 -14.3361 0 0 0 3.60011 -11.1871 -2.85418 
-34.4381 -2.9355 -41.2998 3.19312 -4.91099 117.432 24.8218 -26.9587 2.26942 2.44405 48.8232 -1.16411 -14.8687 -16.7183 -6.77158 -27.0032 -1.21948 -34.2152 3.65421 35.7631 6.90223 21.4157 -17.2983 14.4519 2.98182 9.40822 -0.640009 0 0 0 150.702 -10.0957 127.39 -65.0438 -49.679 -47.5952 66.2865 -20.4332 25.8467 0 0 0 -151.125 -6.54784 -115.092 38.859 -49.9189 25.2728 -70.9531 -27.0417 -13.2819 0 0 0 4.49521 -13.5 -3.36025 
-34.0288 -2.3253 -41.5133 0.976015 -7.08285 120.199 24.7033 -30.588 0.662141 2.09888 47.9837 -0.631224 -14.3842 -15.5757 -6.46611 -24.9574 -1.54133 -35.7771 3.87132 31.5036 5.79341 21.6451 -14.3611 12.2237 2.46454 7.83808 -0.433651 0 0 0 155.156 -5.96126 135.259 -68.0314 -50.8213 -50.7043 67.5907 -19.4219 26.7131 0 0 0 -150.368 -0.376469 -119.016 43.5287 -53.5016 29.4939 -71.2314 -27.8489 -12.0722 0 0 0 5.43213 -16.5295 -4.31421 
-33.7475 -1.5921 -41.7066 -1.28665 -9.17429 123.01 23.9614 -34.0255 -0.99641 2.09082 46.485 -0.551457 -13.7583 -13.8901 -6.40309 -23.0233 -1.86387 -37.4086 3.81434 27.017 4.94115 21.6696 -10.6547 9.68178 1.46575 7.27865 -0.375324 0 0 0 157.976 -1.69279 142.411 -72.1249 -51.6044 -55.13 68.3814 -19.2148 25.7719 0 0 0 -148.3 5.61919 -123.012 48.8303 -56.481 34.3637 -71.294 -29.8542 -10.5196 0 0 0 6.23444 -20.3275 -5.27539 
-33.6722 -0.7785 -41.8799 -3.05061 -10.9034 125.298 22.8478 -36.8018 -2.50793 2.25636 44.6652 -0.575067 -12.9775 -11.5808 -6.25707 -21.232 -2.29142 -38.0653 3.689 22.9837 4.49954 21.5702 -6.74221 6.93258 0.256631 8.76589 0.286547 0 0 0 160.214 -0.490072 147.264 -68.9185 -50.6868 -52.1856 65.384 -19.5309 23.1628 0 0 0 -146.488 9.33493 -125.937 43.8959 -54.7902 30.002 -68.2957 -29.4019 -11.1865 0 0 0 6.45668 -25.5303 -6.19924 
-33.735 -0.01 -42.018 -4.26428 -12.2773 127.339 21.6498 -39.0596 -4.03524 2.32505 42.8742 -0.584572 -12.1325 -9.248 -6.06806 -19.6999 -2.65867 -38.3215 3.53339 19.5341 4.15631 21.4866 -2.7838 4.3143 -0.646546 11.035 0.715429 0 0 0 163.402 -2.06383 150.309 -58.9364 -49.6981 -43.6049 59.4681 -18.1262 20.1547 0 0 0 -147.207 8.47688 -127.76 34.3092 -50.8068 22.3691 -61.2091 -26.3891 -8.11225 0 0 0 6.19425 -30.5263 -6.68878 
-33.9534 0.5901 -42.1436 -4.55726 -13.0637 128.962 20.565 -40.411 -5.33543 2.2423 41.1478 -0.505305 -11.2629 -6.89898 -5.77274 -18.6179 -2.86498 -38.0068 3.28754 16.7269 4.01348 21.4692 1.56503 2.11859 -1.45904 13.8782 1.12319 0 0 0 166.675 -7.59518 149.618 -44.9123 -46.7463 -33.3257 53.3522 -16.8811 18.7769 0 0 0 -151.479 -2.28793 -130.098 25.4326 -45.299 14.498 -56.6205 -23.4634 -8.67724 0 0 0 5.78237 -34.8519 -6.77886 
